<?xml version="1.0" encoding="UTF-8" standalone="no"?>
<!DOCTYPE svg PUBLIC "-//W3C//DTD SVG 1.1//EN" "http://www.w3.org/Graphics/SVG/1.1/DTD/svg11.dtd">
<svg width="100%" height="100%" viewBox="0 0 5906 2266" version="1.1" xmlns="http://www.w3.org/2000/svg" xmlns:xlink="http://www.w3.org/1999/xlink" xml:space="preserve" xmlns:serif="http://www.serif.com/" style="fill-rule:evenodd;clip-rule:evenodd;stroke-linejoin:round;stroke-miterlimit:2;">
    <g transform="matrix(18.314,0,0,18.314,-1071.55,-2789.93)">
        <path d="M374.171,159.137C365.107,150.073 350.357,150.072 341.292,159.137C336.9,163.528 334.481,169.367 334.481,175.577C334.481,178.917 335.202,182.139 336.532,185.097L276.66,232.304C269.854,228.686 261.618,228.686 254.813,232.304L194.93,185.088C198.755,176.539 197.189,166.144 190.182,159.138C181.117,150.074 166.369,150.072 157.302,159.138C150.296,166.145 148.729,176.539 152.554,185.088L92.671,232.304C83.882,227.632 72.706,228.987 65.308,236.384C56.244,245.449 56.244,260.198 65.308,269.263C69.841,273.795 75.794,276.062 81.747,276.062C87.701,276.062 93.654,273.796 98.187,269.263C105.193,262.256 106.76,251.862 102.935,243.313L162.818,196.097C166.221,197.906 169.98,198.816 173.741,198.816C177.503,198.816 181.262,197.906 184.665,196.097L244.548,243.313C240.723,251.862 242.289,262.257 249.296,269.263C253.829,273.796 259.781,276.061 265.736,276.061C271.688,276.061 277.643,273.795 282.175,269.263L282.176,269.263C289.182,262.256 290.748,251.862 286.923,243.313L346.807,196.097C350.21,197.906 353.969,198.816 357.731,198.816C363.684,198.816 369.637,196.55 374.17,192.017C383.235,182.952 383.235,168.202 374.171,159.137ZM87.58,258.656C84.366,261.872 79.131,261.873 75.915,258.656C72.698,255.439 72.698,250.206 75.915,246.99C77.522,245.382 79.635,244.578 81.747,244.578C83.86,244.578 85.973,245.382 87.58,246.99C90.797,250.206 90.797,255.44 87.58,258.656ZM167.909,181.41C164.692,178.193 164.692,172.96 167.909,169.744C169.516,168.136 171.629,167.332 173.741,167.332C175.854,167.332 177.967,168.136 179.574,169.744C182.791,172.961 182.791,178.194 179.574,181.41C176.361,184.626 171.126,184.627 167.909,181.41ZM271.57,258.656C268.353,261.873 263.118,261.872 259.903,258.656C256.686,255.439 256.686,250.206 259.903,246.99C261.51,245.382 263.623,244.578 265.736,244.578C267.848,244.578 269.962,245.382 271.569,246.99C274.786,250.206 274.786,255.44 271.57,258.656ZM363.563,181.41C360.348,184.626 355.114,184.626 351.897,181.41C350.338,179.852 349.481,177.781 349.481,175.577C349.481,173.374 350.338,171.302 351.898,169.744C353.505,168.136 355.618,167.332 357.731,167.332C359.843,167.332 361.956,168.136 363.563,169.744C366.78,172.96 366.78,178.193 363.563,181.41Z" style="fill:rgb(92,184,91);fill-rule:nonzero;"/>
    </g>
</svg>
